<svg width='200' height='200' fill="#000000" xmlns:dc="http://purl.org/dc/elements/1.1/" xmlns:cc="http://creativecommons.org/ns#" xmlns:rdf="http://www.w3.org/1999/02/22-rdf-syntax-ns#" xmlns:svg="http://www.w3.org/2000/svg" xmlns="http://www.w3.org/2000/svg" version="1.1" viewBox="0 0 100 100" xml:space="preserve" x="0px" y="0px"><path d="M 58.53125,14.375 C 57.781786,14.41309 57.11666,14.977766 57,15.75 l -0.5625,3.75 c -2.792958,0.152733 -5.479311,0.839398 -7.9375,1.96875 l -2.25,-3.0625 C 45.720205,17.687923 44.718308,17.532723 44,18.0625 L 39.375,21.5 c -0.718309,0.529796 -0.873527,1.531692 -0.34375,2.25 l 2.25,3.0625 c -1.805734,2.014907 -3.247343,4.376527 -4.21875,7 l -3.75,-0.59375 c -0.882564,-0.13332 -1.71043,0.492454 -1.84375,1.375 l -0.84375,5.6875 c -0.13332,0.882545 0.461186,1.710448 1.34375,1.84375 l 3.75,0.5625 c 0.03798,0.694675 0.116457,1.383018 0.21875,2.0625 l 0.34375,0 c 2.185108,-0.0585 4.360027,0.208147 6.46875,0.71875 -0.537502,-1.999017 -0.703989,-4.134548 -0.375,-6.3125 1.275351,-8.443056 9.150748,-14.275351 17.59375,-13 8.443075,1.275333 14.275351,9.150711 13,17.59375 -0.512658,3.393927 -2.12092,6.371306 -4.375,8.625 2.253603,0.308402 4.493821,0.725135 6.65625,1.40625 0.182605,0.03468 0.355159,0.07577 0.53125,0.125 1.011389,-1.470176 1.864003,-3.094069 2.5,-4.8125 l 3.75,0.5625 c 0.882546,0.133321 1.71043,-0.461222 1.84375,-1.34375 L 84.71875,42.625 C 84.85207,41.742454 84.257564,40.91457 83.375,40.78125 l -3.75,-0.5625 c -0.153137,-2.792701 -0.839196,-5.479604 -1.96875,-7.9375 l 3.0625,-2.25 c 0.718309,-0.529777 0.873508,-1.531656 0.34375,-2.25 l -3.4375,-4.625 c -0.529777,-0.718289 -1.531711,-0.873527 -2.25,-0.34375 l -3.0625,2.25 c -2.014595,-1.805147 -4.377115,-3.247581 -7,-4.21875 l 0.5625,-3.75 C 66.008321,16.211204 65.413796,15.383321 64.53125,15.25 l -5.6875,-0.84375 C 58.733438,14.38955 58.638313,14.36959 58.53125,14.375 z M 5,45.90625 5,76.875 l 10.3125,0 0,-30.96875 -10.3125,0 z m 30.4375,1.40625 c -5.977455,-0.0055 -12.335035,1.126464 -17.25,2.71875 l 0,22.03125 c 1.912687,0.550859 3.420643,0.823615 5.375,1.21875 5.676411,1.147646 10.428961,5.016037 15.71875,7.34375 4.553665,2.003806 9.062935,4.907799 14.125,5 7.726785,0.140715 15.278159,-1.81878 22.875,-3.03125 6.13872,-0.979757 11.697403,-6.393645 15.8125,-10.84375 3.727302,-4.030786 3.428529,-6.482127 1.59375,-9.28125 -2.057898,-3.139488 -7.143379,-1.292316 -9.84375,1.03125 -3.116425,2.681564 -6.819571,4.859254 -11.09375,5.3125 -6.79224,0.720253 -14.292614,1.055427 -20.1875,-2.78125 2.682316,-1.323938 6.435083,-0.268257 9.53125,-0.25 4.33706,0.02558 8.775235,1.295221 13.03125,0.4375 4.361977,-0.879096 4.698683,-8.269992 0.125,-9.78125 -6.583286,-2.175273 -13.595406,-1.752523 -20.1875,-3.5 C 50.106342,51.623672 45.810918,48.314629 40.625,47.625 38.958862,47.403441 37.214831,47.314133 35.4375,47.3125 z M 10.15625,70.21875 c 1.249939,0 2.28125,1.031312 2.28125,2.28125 0,1.249939 -1.031311,2.25 -2.28125,2.25 -1.2499381,0 -2.25,-1.000061 -2.25,-2.25 0,-1.249938 1.0000619,-2.28125 2.25,-2.28125 z" style="text-indent:0;text-transform:none;direction:ltr;block-progression:tb;baseline-shift:baseline;color:#000000;enable-background:accumulate;" fill="#000000" fill-opacity="1" fill-rule="evenodd" stroke="none" marker="none" visibility="visible" display="inline" overflow="visible"></path></svg>